<?xml version="1.0" encoding="UTF-8" standalone="no"?>
<!-- Created with Inkscape (http://www.inkscape.org/) -->

<svg
   width="120mm"
   height="120mm"
   viewBox="0 0 120 120"
   version="1.1"
   id="svg1483"
   inkscape:version="1.2.2 (b0a8486541, 2022-12-01)"
   sodipodi:docname="Rains_Downers_Icon_Colour.svg"
   inkscape:export-filename="Rains_Downers_Icon_Colour.png"
   inkscape:export-xdpi="200"
   inkscape:export-ydpi="200"
   xmlns:inkscape="http://www.inkscape.org/namespaces/inkscape"
   xmlns:sodipodi="http://sodipodi.sourceforge.net/DTD/sodipodi-0.dtd"
   xmlns:xlink="http://www.w3.org/1999/xlink"
   xmlns="http://www.w3.org/2000/svg"
   xmlns:svg="http://www.w3.org/2000/svg">
  <sodipodi:namedview
     id="namedview1485"
     pagecolor="#505050"
     bordercolor="#eeeeee"
     borderopacity="1"
     inkscape:showpageshadow="0"
     inkscape:pageopacity="0"
     inkscape:pagecheckerboard="0"
     inkscape:deskcolor="#505050"
     inkscape:document-units="mm"
     showgrid="false"
     inkscape:zoom="0.66190376"
     inkscape:cx="117.8419"
     inkscape:cy="245.50397"
     inkscape:window-width="1857"
     inkscape:window-height="1044"
     inkscape:window-x="63"
     inkscape:window-y="0"
     inkscape:window-maximized="1"
     inkscape:current-layer="layer2" />
  <defs
     id="defs1480">
    <color-profile
       name="sRGB"
       xlink:href="file:///usr/share/color/icc/colord/sRGB.icc"
       id="color-profile2402" />
    <clipPath
       clipPathUnits="userSpaceOnUse"
       id="clipPath1272">
      <g
         id="g1276"
         transform="translate(-304.4725,-101.6596)">
        <path
           d="M 0,125.568 H 340.157 V 0 H 0 Z"
           id="path1274" />
      </g>
    </clipPath>
    <clipPath
       clipPathUnits="userSpaceOnUse"
       id="clipPath1266">
      <g
         id="g1270"
         transform="translate(-315.607,-103.7128)">
        <path
           d="M 0,125.568 H 340.157 V 0 H 0 Z"
           id="path1268" />
      </g>
    </clipPath>
  </defs>
  <g
     inkscape:groupmode="layer"
     id="layer2"
     inkscape:label="background"
     style="display:inline">
    <rect
       style="fill:#eeeedd;fill-opacity:1;stroke:none;stroke-width:3.26501"
       id="rect2345"
       width="120"
       height="120"
       x="0"
       y="0" />
  </g>
  <g
     inkscape:label="Ebene 1"
     inkscape:groupmode="layer"
     id="layer1"
     transform="translate(-54.880831,-84.092634)">
    <g
       id="g2288">
      <g
         id="g96"
         transform="matrix(3.2847342,0,0,-3.6053383,107.50358,115.11957)"
         clip-path="url(#clipPath1272)"
         style="fill:#113322;fill-opacity:1">
        <path
           d="m 0,0 c 0.183,0.393 0.393,0.663 0.626,0.81 0.233,0.147 0.589,0.221 1.068,0.221 0.711,0 1.169,-0.132 1.371,-0.396 0.203,-0.264 0.316,-0.789 0.341,-1.574 l 0.073,-3.536 v -0.202 c 0,-0.725 -0.144,-1.231 -0.432,-1.519 -0.288,-0.289 -0.777,-0.433 -1.464,-0.433 -0.872,0 -1.522,0.466 -1.952,1.399 -0.061,0.135 -0.11,0.246 -0.147,0.332 -0.38,0.761 -0.896,1.334 -1.547,1.722 -0.651,0.386 -1.417,0.579 -2.301,0.579 -1.106,0 -1.998,-0.255 -2.68,-0.764 -0.681,-0.509 -1.021,-1.163 -1.021,-1.961 0,-1.129 1.559,-2.019 4.677,-2.67 0.527,-0.11 0.944,-0.196 1.252,-0.258 2.357,-0.515 4.063,-1.301 5.119,-2.357 1.056,-1.055 1.583,-2.498 1.583,-4.327 0,-2.259 -0.767,-3.998 -2.301,-5.22 -1.535,-1.222 -3.733,-1.832 -6.592,-1.832 -1.118,0 -2.115,0.073 -2.992,0.221 -0.879,0.147 -1.729,0.374 -2.552,0.681 -0.195,-0.319 -0.423,-0.549 -0.68,-0.69 -0.259,-0.141 -0.615,-0.212 -1.068,-0.212 -0.774,0 -1.314,0.147 -1.621,0.442 -0.307,0.294 -0.467,0.815 -0.479,1.565 l -0.074,4.328 v 0.202 c 0,0.81 0.151,1.374 0.452,1.694 0.301,0.319 0.826,0.478 1.574,0.478 0.798,0 1.467,-0.577 2.007,-1.73 0.123,-0.283 0.221,-0.498 0.295,-0.644 0.478,-0.946 1.145,-1.652 1.998,-2.119 0.853,-0.466 1.899,-0.699 3.14,-0.699 1.128,0 2.007,0.233 2.633,0.699 0.626,0.467 0.939,1.124 0.939,1.971 0,1.313 -1.419,2.308 -4.254,2.983 -0.847,0.196 -1.516,0.361 -2.007,0.497 -2.382,0.626 -4.033,1.409 -4.954,2.347 -0.92,0.94 -1.38,2.226 -1.38,3.858 0,2.1 0.788,3.815 2.366,5.147 1.577,1.332 3.618,1.998 6.123,1.998 0.834,0 1.653,-0.086 2.458,-0.257 C -1.599,0.601 -0.799,0.343 0,0"
           style="fill:#113322;fill-opacity:1;fill-rule:nonzero;stroke:none"
           id="path98" />
      </g>
      <g
         id="g100"
         transform="matrix(3.2847342,0,0,-3.6053383,144.07741,107.71709)"
         clip-path="url(#clipPath1266)"
         style="fill:#113322;fill-opacity:1">
        <path
           d="M 0,0 H 4.397 C 4.575,0 4.724,-0.041 4.843,-0.123 4.962,-0.207 5.022,-0.305 5.022,-0.426 5.022,-0.529 5.01,-0.625 4.989,-0.714 4.966,-0.805 4.932,-0.887 4.888,-0.962 l -5.49,-10.646 c -0.119,-0.221 -0.249,-0.387 -0.391,-0.49 -0.142,-0.104 -0.302,-0.156 -0.48,-0.156 -0.089,0 -0.16,0.004 -0.211,0.012 -0.053,0.007 -0.101,0.019 -0.146,0.033 l -1.406,0.512 c -0.208,0.06 -0.368,0.154 -0.48,0.279 -0.112,0.128 -0.167,0.272 -0.167,0.435 0,0.149 0.004,0.25 0.011,0.303 0.007,0.051 0.018,0.109 0.034,0.166 l 2.611,9.463 c 0.134,0.462 0.279,0.753 0.435,0.871 C -0.636,-0.06 -0.371,0 0,0"
           style="fill:#113322;fill-opacity:1;fill-rule:nonzero;stroke:none"
           id="path102" />
      </g>
    </g>
  </g>
</svg>
