<?xml version="1.0" encoding="UTF-8" standalone="no"?>
<!-- Created with Inkscape (http://www.inkscape.org/) -->

<svg
   version="1.1"
   id="svg2"
   width="453.54266"
   height="167.424"
   viewBox="0 0 453.54266 167.424"
   sodipodi:docname="Rains Downers_Colour.svg"
   inkscape:version="1.2.2 (b0a8486541, 2022-12-01)"
   inkscape:export-filename="Rains Downers_Colour.png"
   inkscape:export-xdpi="200"
   inkscape:export-ydpi="200"
   xmlns:inkscape="http://www.inkscape.org/namespaces/inkscape"
   xmlns:sodipodi="http://sodipodi.sourceforge.net/DTD/sodipodi-0.dtd"
   xmlns="http://www.w3.org/2000/svg"
   xmlns:svg="http://www.w3.org/2000/svg">
  <defs
     id="defs6">
    <clipPath
       clipPathUnits="userSpaceOnUse"
       id="clipPath1182">
      <g
         id="g1186"
         transform="translate(-256.2401,-57.4214)">
        <path
           d="M 0,125.568 H 340.157 V 0 H 0 Z"
           id="path1184" />
      </g>
    </clipPath>
    <clipPath
       clipPathUnits="userSpaceOnUse"
       id="clipPath1188">
      <g
         id="g1192"
         transform="translate(-243.3817,-51.1607)">
        <path
           d="M 0,125.568 H 340.157 V 0 H 0 Z"
           id="path1190" />
      </g>
    </clipPath>
    <clipPath
       clipPathUnits="userSpaceOnUse"
       id="clipPath1194">
      <g
         id="g1198"
         transform="translate(-228.2118,-55.8077)">
        <path
           d="M 0,125.568 H 340.157 V 0 H 0 Z"
           id="path1196" />
      </g>
    </clipPath>
    <clipPath
       clipPathUnits="userSpaceOnUse"
       id="clipPath1200">
      <g
         id="g1204"
         transform="translate(-215.9687,-55.6294)">
        <path
           d="M 0,125.568 H 340.157 V 0 H 0 Z"
           id="path1202" />
      </g>
    </clipPath>
    <clipPath
       clipPathUnits="userSpaceOnUse"
       id="clipPath1206">
      <g
         id="g1210"
         transform="translate(-204.3759,-55.6456)">
        <path
           d="M 0,125.568 H 340.157 V 0 H 0 Z"
           id="path1208" />
      </g>
    </clipPath>
    <clipPath
       clipPathUnits="userSpaceOnUse"
       id="clipPath1212">
      <g
         id="g1216"
         transform="translate(-188.1835,-55.6294)">
        <path
           d="M 0,125.568 H 340.157 V 0 H 0 Z"
           id="path1214" />
      </g>
    </clipPath>
    <clipPath
       clipPathUnits="userSpaceOnUse"
       id="clipPath1218">
      <g
         id="g1222"
         transform="translate(-173.2646,-55.6294)">
        <path
           d="M 0,125.568 H 340.157 V 0 H 0 Z"
           id="path1220" />
      </g>
    </clipPath>
    <clipPath
       clipPathUnits="userSpaceOnUse"
       id="clipPath1224">
      <g
         id="g1228"
         transform="translate(-160.4633,-55.6778)">
        <path
           d="M 0,125.568 H 340.157 V 0 H 0 Z"
           id="path1226" />
      </g>
    </clipPath>
    <clipPath
       clipPathUnits="userSpaceOnUse"
       id="clipPath1230">
      <g
         id="g1234"
         transform="translate(-150.807,-55.7105)">
        <path
           d="M 0,125.568 H 340.157 V 0 H 0 Z"
           id="path1232" />
      </g>
    </clipPath>
    <clipPath
       clipPathUnits="userSpaceOnUse"
       id="clipPath1236">
      <g
         id="g1240"
         transform="translate(-137.2187,-57.2349)">
        <path
           d="M 0,125.568 H 340.157 V 0 H 0 Z"
           id="path1238" />
      </g>
    </clipPath>
    <clipPath
       clipPathUnits="userSpaceOnUse"
       id="clipPath1242">
      <g
         id="g1246"
         transform="translate(-123.7841,-51.1607)">
        <path
           d="M 0,125.568 H 340.157 V 0 H 0 Z"
           id="path1244" />
      </g>
    </clipPath>
    <clipPath
       clipPathUnits="userSpaceOnUse"
       id="clipPath1248">
      <g
         id="g1252"
         transform="translate(-108.6142,-55.8077)">
        <path
           d="M 0,125.568 H 340.157 V 0 H 0 Z"
           id="path1250" />
      </g>
    </clipPath>
    <clipPath
       clipPathUnits="userSpaceOnUse"
       id="clipPath1254">
      <g
         id="g1258"
         transform="translate(-97.872,-57.1539)">
        <path
           d="M 0,125.568 H 340.157 V 0 H 0 Z"
           id="path1256" />
      </g>
    </clipPath>
    <clipPath
       clipPathUnits="userSpaceOnUse"
       id="clipPath1260">
      <g
         id="g1264"
         transform="translate(-84.3481,-57.6729)">
        <path
           d="M 0,125.568 H 340.157 V 0 H 0 Z"
           id="path1262" />
      </g>
    </clipPath>
    <clipPath
       clipPathUnits="userSpaceOnUse"
       id="clipPath1266">
      <g
         id="g1270"
         transform="translate(-315.607,-103.7128)">
        <path
           d="M 0,125.568 H 340.157 V 0 H 0 Z"
           id="path1268" />
      </g>
    </clipPath>
    <clipPath
       clipPathUnits="userSpaceOnUse"
       id="clipPath1272">
      <g
         id="g1276"
         transform="translate(-304.4725,-101.6596)">
        <path
           d="M 0,125.568 H 340.157 V 0 H 0 Z"
           id="path1274" />
      </g>
    </clipPath>
    <clipPath
       clipPathUnits="userSpaceOnUse"
       id="clipPath1278">
      <g
         id="g1282"
         transform="translate(-274.2742,-98.1238)">
        <path
           d="M 0,125.568 H 340.157 V 0 H 0 Z"
           id="path1280" />
      </g>
    </clipPath>
    <clipPath
       clipPathUnits="userSpaceOnUse"
       id="clipPath1284">
      <g
         id="g1288"
         transform="translate(-259.892,-98.198)">
        <path
           d="M 0,125.568 H 340.157 V 0 H 0 Z"
           id="path1286" />
      </g>
    </clipPath>
    <clipPath
       clipPathUnits="userSpaceOnUse"
       id="clipPath1290">
      <g
         id="g1294"
         transform="translate(-236.2493,-87.8677)">
        <path
           d="M 0,125.568 H 340.157 V 0 H 0 Z"
           id="path1292" />
      </g>
    </clipPath>
    <clipPath
       clipPathUnits="userSpaceOnUse"
       id="clipPath1296">
      <g
         id="g1300"
         transform="translate(-204.0429,-98.0137)">
        <path
           d="M 0,125.568 H 340.157 V 0 H 0 Z"
           id="path1298" />
      </g>
    </clipPath>
    <clipPath
       clipPathUnits="userSpaceOnUse"
       id="clipPath1302">
      <g
         id="g1306"
         transform="translate(-186.7152,-98.4189)">
        <path
           d="M 0,125.568 H 340.157 V 0 H 0 Z"
           id="path1304" />
      </g>
    </clipPath>
    <clipPath
       clipPathUnits="userSpaceOnUse"
       id="clipPath1308">
      <g
         id="g1312"
         transform="translate(-161.0837,-98.0871)">
        <path
           d="M 0,125.568 H 340.157 V 0 H 0 Z"
           id="path1310" />
      </g>
    </clipPath>
    <clipPath
       clipPathUnits="userSpaceOnUse"
       id="clipPath1314">
      <g
         id="g1318"
         transform="translate(-127.1984,-101.6596)">
        <path
           d="M 0,125.568 H 340.157 V 0 H 0 Z"
           id="path1316" />
      </g>
    </clipPath>
    <clipPath
       clipPathUnits="userSpaceOnUse"
       id="clipPath1320">
      <g
         id="g1324"
         transform="translate(-104.2364,-87.8677)">
        <path
           d="M 0,125.568 H 340.157 V 0 H 0 Z"
           id="path1322" />
      </g>
    </clipPath>
    <clipPath
       clipPathUnits="userSpaceOnUse"
       id="clipPath1326">
      <g
         id="g1330"
         transform="translate(-79.709,-98.0137)">
        <path
           d="M 0,125.568 H 340.157 V 0 H 0 Z"
           id="path1328" />
      </g>
    </clipPath>
    <clipPath
       clipPathUnits="userSpaceOnUse"
       id="clipPath1332">
      <g
         id="g1336"
         transform="translate(-54.3346,-98.0137)">
        <path
           d="M 0,125.568 H 340.157 V 0 H 0 Z"
           id="path1334" />
      </g>
    </clipPath>
    <clipPath
       clipPathUnits="userSpaceOnUse"
       id="clipPath1338">
      <g
         id="g1342"
         transform="translate(-26.36,-98.1238)">
        <path
           d="M 0,125.568 H 340.157 V 0 H 0 Z"
           id="path1340" />
      </g>
    </clipPath>
    <clipPath
       clipPathUnits="userSpaceOnUse"
       id="clipPath1344">
      <g
         id="g1348"
         transform="translate(-188.3515,-18.9029)">
        <path
           d="M 0,125.568 H 340.157 V 0 H 0 Z"
           id="path1346" />
      </g>
    </clipPath>
    <clipPath
       clipPathUnits="userSpaceOnUse"
       id="clipPath1350">
      <g
         id="g1354"
         transform="translate(-181.6474,-23.6382)">
        <path
           d="M 0,125.568 H 340.157 V 0 H 0 Z"
           id="path1352" />
      </g>
    </clipPath>
    <clipPath
       clipPathUnits="userSpaceOnUse"
       id="clipPath1356">
      <g
         id="g1360"
         transform="translate(-177.0985,-22.6714)">
        <path
           d="M 0,125.568 H 340.157 V 0 H 0 Z"
           id="path1358" />
      </g>
    </clipPath>
    <clipPath
       clipPathUnits="userSpaceOnUse"
       id="clipPath1362">
      <g
         id="g1366"
         transform="translate(-170.5136,-18.8326)">
        <path
           d="M 0,125.568 H 340.157 V 0 H 0 Z"
           id="path1364" />
      </g>
    </clipPath>
    <clipPath
       clipPathUnits="userSpaceOnUse"
       id="clipPath1368">
      <g
         id="g1372"
         transform="translate(-163.2748,-19.7007)">
        <path
           d="M 0,125.568 H 340.157 V 0 H 0 Z"
           id="path1370" />
      </g>
    </clipPath>
    <clipPath
       clipPathUnits="userSpaceOnUse"
       id="clipPath1374">
      <g
         id="g1378"
         transform="translate(-156.4711,-22.648)">
        <path
           d="M 0,125.568 H 340.157 V 0 H 0 Z"
           id="path1376" />
      </g>
    </clipPath>
    <clipPath
       clipPathUnits="userSpaceOnUse"
       id="clipPath1380">
      <g
         id="g1384"
         transform="translate(-149.0063,-17.6734)">
        <path
           d="M 0,125.568 H 340.157 V 0 H 0 Z"
           id="path1382" />
      </g>
    </clipPath>
    <clipPath
       clipPathUnits="userSpaceOnUse"
       id="clipPath1386">
      <g
         id="g1390"
         transform="translate(-145.4525,-23.271)">
        <path
           d="M 0,125.568 H 340.157 V 0 H 0 Z"
           id="path1388" />
      </g>
    </clipPath>
  </defs>
  <sodipodi:namedview
     id="namedview4"
     pagecolor="#505050"
     bordercolor="#eeeeee"
     borderopacity="1"
     inkscape:showpageshadow="0"
     inkscape:pageopacity="0"
     inkscape:pagecheckerboard="true"
     inkscape:deskcolor="#505050"
     showgrid="false"
     inkscape:zoom="3.1772093"
     inkscape:cx="225.355"
     inkscape:cy="84.193383"
     inkscape:window-width="1857"
     inkscape:window-height="1044"
     inkscape:window-x="63"
     inkscape:window-y="0"
     inkscape:window-maximized="1"
     inkscape:current-layer="g10">
    <inkscape:page
       x="0"
       y="0"
       id="page8"
       width="453.54266"
       height="167.424" />
  </sodipodi:namedview>
  <g
     id="g10"
     inkscape:groupmode="layer"
     inkscape:label="Page 1"
     transform="matrix(1.3333333,0,0,-1.3333333,0,167.424)">
    <g
       id="g1602">
      <g
         id="g20"
         transform="translate(145.4525,23.271)"
         clip-path="url(#clipPath1386)"
         style="fill:#113322;fill-opacity:1">
        <path
           d="m 0,0 h -2.438 v -1.491 h 0.923 v 0.07 c 0,0.221 0.043,0.386 0.131,0.495 0.087,0.109 0.22,0.163 0.398,0.163 0.157,0 0.286,-0.049 0.385,-0.148 0.1,-0.1 0.15,-0.225 0.15,-0.376 0,-0.008 0.002,-0.033 0.005,-0.076 0.004,-0.042 0.006,-0.085 0.006,-0.128 v -1.205 c 0,-0.261 -0.042,-0.448 -0.126,-0.56 -0.084,-0.112 -0.221,-0.169 -0.409,-0.169 -0.178,0 -0.313,0.053 -0.404,0.157 -0.091,0.105 -0.136,0.26 -0.136,0.466 v 0.106 H -2.438 V -4.438 H 0 v 0.693 c 0,0.26 0.044,0.446 0.133,0.559 0.09,0.113 0.236,0.169 0.438,0.169 0.2,0 0.342,-0.055 0.428,-0.166 0.085,-0.111 0.128,-0.298 0.128,-0.562 v -1.409 c 0,-0.21 -0.037,-0.35 -0.11,-0.42 -0.074,-0.07 -0.219,-0.105 -0.435,-0.105 h -4.293 c -0.231,0 -0.396,0.051 -0.496,0.152 -0.1,0.1 -0.149,0.265 -0.149,0.495 0,0.206 0.047,0.362 0.141,0.469 0.095,0.106 0.233,0.16 0.414,0.16 h 0.09 v 4.344 h -0.09 c -0.178,0 -0.315,0.056 -0.411,0.166 -0.096,0.112 -0.144,0.27 -0.144,0.475 0,0.226 0.05,0.39 0.152,0.492 0.101,0.104 0.266,0.155 0.493,0.155 H 0.582 C 0.795,1.229 0.939,1.193 1.014,1.121 1.089,1.049 1.127,0.906 1.127,0.693 V -0.611 C 1.127,-0.876 1.083,-1.064 0.996,-1.18 0.908,-1.294 0.767,-1.352 0.571,-1.352 0.369,-1.352 0.223,-1.293 0.133,-1.177 0.044,-1.06 0,-0.872 0,-0.611 Z"
           style="fill:#113322;fill-opacity:1;fill-rule:nonzero;stroke:none"
           id="path22" />
      </g>
      <g
         id="g24"
         transform="translate(149.0063,17.6734)"
         clip-path="url(#clipPath1380)"
         style="fill:#113322;fill-opacity:1">
        <path
           d="m 0,0 c -0.091,-0.077 -0.184,-0.137 -0.28,-0.177 -0.096,-0.041 -0.195,-0.061 -0.297,-0.061 -0.15,0 -0.256,0.045 -0.317,0.134 -0.061,0.089 -0.091,0.256 -0.091,0.5 v 0.775 c 0,0.257 0.038,0.438 0.115,0.545 0.077,0.106 0.21,0.16 0.398,0.16 0.206,0 0.374,-0.11 0.504,-0.332 C 0.108,1.424 0.173,1.334 0.226,1.276 0.397,1.105 0.596,0.977 0.823,0.892 1.05,0.807 1.309,0.764 1.599,0.764 c 0.252,0 0.452,0.053 0.603,0.163 0.15,0.108 0.225,0.25 0.225,0.425 0,0.314 -0.404,0.532 -1.211,0.652 -0.178,0.023 -0.318,0.045 -0.419,0.064 -0.608,0.093 -1.061,0.277 -1.358,0.55 -0.297,0.275 -0.445,0.642 -0.445,1.105 0,0.547 0.178,0.97 0.534,1.269 0.357,0.299 0.866,0.448 1.526,0.448 0.227,0 0.46,-0.02 0.699,-0.061 C 1.993,5.339 2.238,5.275 2.49,5.19 2.563,5.287 2.641,5.358 2.723,5.405 2.806,5.452 2.897,5.476 2.999,5.476 3.142,5.476 3.251,5.426 3.326,5.327 3.401,5.228 3.439,5.079 3.439,4.881 V 4.165 C 3.439,3.998 3.4,3.869 3.324,3.777 3.247,3.687 3.138,3.641 2.999,3.641 2.855,3.641 2.61,3.779 2.262,4.058 1.914,4.335 1.566,4.474 1.216,4.474 0.944,4.474 0.732,4.424 0.582,4.325 0.432,4.226 0.356,4.089 0.356,3.914 0.356,3.643 0.671,3.46 1.3,3.367 1.482,3.344 1.625,3.324 1.73,3.309 2.52,3.181 3.063,2.989 3.357,2.735 3.653,2.48 3.801,2.104 3.801,1.603 3.801,1.016 3.606,0.562 3.216,0.242 c -0.39,-0.32 -0.943,-0.48 -1.659,-0.48 -0.28,0 -0.549,0.02 -0.807,0.061 C 0.491,-0.137 0.241,-0.077 0,0"
           style="fill:#113322;fill-opacity:1;fill-rule:nonzero;stroke:none"
           id="path26" />
      </g>
      <g
         id="g28"
         transform="translate(156.4711,22.648)"
         clip-path="url(#clipPath1374)"
         style="fill:#113322;fill-opacity:1">
        <path
           d="M 0,0 H 1.599 C 1.84,0 2.011,-0.049 2.112,-0.146 2.214,-0.243 2.265,-0.404 2.265,-0.629 2.265,-0.858 2.213,-1.023 2.11,-1.124 2.007,-1.226 1.836,-1.275 1.599,-1.275 H 0 v -1.492 c 0,-0.42 0.058,-0.707 0.173,-0.862 0.115,-0.155 0.318,-0.232 0.608,-0.232 0.273,0 0.594,0.087 0.965,0.261 0.37,0.175 0.618,0.262 0.744,0.262 0.143,0 0.266,-0.062 0.369,-0.188 0.103,-0.127 0.155,-0.28 0.155,-0.458 0,-0.299 -0.244,-0.572 -0.731,-0.819 -0.488,-0.246 -1.041,-0.369 -1.659,-0.369 -0.36,0 -0.677,0.054 -0.949,0.163 -0.273,0.109 -0.487,0.264 -0.645,0.466 -0.115,0.155 -0.197,0.342 -0.246,0.559 -0.049,0.217 -0.074,0.581 -0.074,1.089 v 0.128 1.492 h -0.492 c -0.238,0 -0.406,0.049 -0.506,0.151 -0.1,0.101 -0.15,0.266 -0.15,0.495 0,0.229 0.049,0.391 0.147,0.486 C -2.193,-0.048 -2.023,0 -1.782,0 h 0.492 v 1.362 c 0,0.269 0.05,0.457 0.15,0.566 0.099,0.108 0.265,0.163 0.495,0.163 0.231,0 0.396,-0.055 0.496,-0.163 C -0.05,1.819 0,1.631 0,1.362 Z"
           style="fill:#113322;fill-opacity:1;fill-rule:nonzero;stroke:none"
           id="path30" />
      </g>
      <g
         id="g32"
         transform="translate(163.2748,19.7007)"
         clip-path="url(#clipPath1368)"
         style="fill:#113322;fill-opacity:1">
        <path
           d="m 0,0 c 0.328,0 0.593,-0.101 0.794,-0.303 0.201,-0.202 0.301,-0.466 0.301,-0.792 0,-0.322 -0.1,-0.586 -0.301,-0.789 C 0.593,-2.088 0.328,-2.189 0,-2.189 c -0.322,0 -0.584,0.101 -0.787,0.305 -0.202,0.203 -0.303,0.467 -0.303,0.789 0,0.323 0.101,0.585 0.303,0.789 C -0.584,-0.102 -0.322,0 0,0"
           style="fill:#113322;fill-opacity:1;fill-rule:nonzero;stroke:none"
           id="path34" />
      </g>
      <g
         id="g36"
         transform="translate(170.5136,18.8326)"
         clip-path="url(#clipPath1362)"
         style="fill:#113322;fill-opacity:1">
        <path
           d="M 0,0 H 0.85 C 1.084,0 1.253,-0.048 1.358,-0.146 1.463,-0.242 1.516,-0.401 1.516,-0.623 1.516,-0.841 1.465,-0.998 1.363,-1.095 1.262,-1.191 1.091,-1.24 0.85,-1.24 h -3.093 c -0.241,0 -0.413,0.049 -0.514,0.145 -0.101,0.097 -0.152,0.254 -0.152,0.472 0,0.222 0.052,0.381 0.155,0.477 C -2.651,-0.048 -2.481,0 -2.243,0 h 0.974 V 4.916 L -1.855,4.747 C -1.946,4.724 -2.021,4.706 -2.081,4.694 -2.14,4.684 -2.184,4.678 -2.212,4.678 c -0.143,0 -0.254,0.05 -0.333,0.151 -0.079,0.101 -0.118,0.244 -0.118,0.431 0,0.136 0.044,0.25 0.131,0.344 0.088,0.092 0.222,0.165 0.404,0.215 l 1.3,0.396 c 0.108,0.031 0.197,0.055 0.267,0.07 0.07,0.015 0.128,0.023 0.173,0.023 0.14,0 0.24,-0.042 0.299,-0.128 C -0.03,6.095 0,5.951 0,5.749 Z"
           style="fill:#113322;fill-opacity:1;fill-rule:nonzero;stroke:none"
           id="path38" />
      </g>
      <g
         id="g40"
         transform="translate(177.0985,22.6714)"
         clip-path="url(#clipPath1356)"
         style="fill:#113322;fill-opacity:1">
        <path
           d="M 0,0 C 0,0.392 -0.1,0.709 -0.297,0.952 -0.494,1.194 -0.746,1.316 -1.055,1.316 -1.342,1.316 -1.574,1.2 -1.752,0.97 -1.93,0.738 -2.02,0.437 -2.02,0.063 c 0,-0.383 0.096,-0.697 0.284,-0.94 0.189,-0.242 0.429,-0.364 0.724,-0.364 0.289,0 0.532,0.118 0.723,0.352 C -0.098,-0.653 0,-0.357 0,0 m 0.02,-1.847 c -0.168,-0.214 -0.37,-0.379 -0.608,-0.495 -0.238,-0.116 -0.492,-0.175 -0.766,-0.175 -0.562,0 -1.036,0.24 -1.419,0.717 -0.385,0.478 -0.578,1.066 -0.578,1.765 0,0.741 0.216,1.341 0.648,1.797 0.432,0.456 1.002,0.684 1.711,0.684 0.742,0 1.326,-0.3 1.754,-0.9 0.427,-0.6 0.642,-1.424 0.642,-2.473 0,-1.308 -0.33,-2.359 -0.99,-3.153 -0.662,-0.794 -1.533,-1.191 -2.617,-1.191 -0.366,0 -0.628,0.034 -0.785,0.102 -0.158,0.067 -0.237,0.177 -0.237,0.329 0,0.353 0.246,0.543 0.74,0.57 0.21,0.016 0.38,0.032 0.508,0.047 0.551,0.074 0.987,0.298 1.303,0.673 0.317,0.374 0.547,0.943 0.694,1.703"
           style="fill:#113322;fill-opacity:1;fill-rule:nonzero;stroke:none"
           id="path42" />
      </g>
      <g
         id="g44"
         transform="translate(181.6474,23.6382)"
         clip-path="url(#clipPath1350)"
         style="fill:#113322;fill-opacity:1">
        <path
           d="m 0,0 v -1.346 c 0.227,0.075 0.434,0.128 0.618,0.163 0.186,0.036 0.359,0.053 0.52,0.053 0.629,0 1.136,-0.23 1.525,-0.69 0.388,-0.46 0.581,-1.066 0.581,-1.815 0,-0.846 -0.237,-1.492 -0.713,-1.936 -0.474,-0.445 -1.165,-0.667 -2.07,-0.667 -0.649,0 -1.144,0.08 -1.481,0.239 -0.337,0.159 -0.505,0.394 -0.505,0.704 0,0.187 0.059,0.347 0.177,0.481 0.119,0.134 0.261,0.201 0.425,0.201 0.102,0 0.32,-0.057 0.658,-0.169 0.337,-0.113 0.626,-0.169 0.868,-0.169 0.394,0 0.701,0.114 0.917,0.341 0.216,0.227 0.325,0.548 0.325,0.964 0,0.404 -0.102,0.725 -0.307,0.963 -0.204,0.24 -0.481,0.359 -0.831,0.359 -0.224,0 -0.489,-0.079 -0.796,-0.239 -0.307,-0.16 -0.517,-0.239 -0.63,-0.239 -0.198,0 -0.34,0.062 -0.424,0.184 -0.084,0.122 -0.126,0.331 -0.126,0.626 v 2.819 c 0,0.209 0.026,0.341 0.077,0.396 0.05,0.054 0.136,0.082 0.258,0.082 H 2.5 C 2.717,1.305 2.868,1.257 2.954,1.162 3.039,1.066 3.082,0.895 3.082,0.646 3.082,0.401 3.04,0.232 2.956,0.14 2.872,0.046 2.721,0 2.5,0 Z"
           style="fill:#113322;fill-opacity:1;fill-rule:nonzero;stroke:none"
           id="path46" />
      </g>
      <g
         id="g48"
         transform="translate(188.3515,18.9029)"
         clip-path="url(#clipPath1344)"
         style="fill:#113322;fill-opacity:1">
        <path
           d="m 0,0 h 1.835 v 0.035 c 0,0.197 0.048,0.346 0.144,0.443 C 2.075,0.574 2.218,0.623 2.406,0.623 2.56,0.623 2.679,0.575 2.763,0.48 2.847,0.385 2.889,0.25 2.889,0.075 V 0 L 2.847,-0.903 C 2.84,-1.081 2.814,-1.194 2.771,-1.24 2.727,-1.287 2.648,-1.311 2.536,-1.311 h -3.773 c -0.202,0 -0.359,0.049 -0.469,0.146 -0.11,0.097 -0.165,0.235 -0.165,0.414 0,0.147 0.034,0.292 0.102,0.434 0.068,0.141 0.177,0.292 0.328,0.451 L 0.692,2.423 C 0.923,2.671 1.095,2.92 1.208,3.168 1.322,3.417 1.379,3.665 1.379,3.914 1.379,4.264 1.303,4.523 1.15,4.694 0.999,4.865 0.768,4.95 0.456,4.95 0.274,4.95 0.113,4.921 -0.028,4.86 -0.17,4.8 -0.279,4.716 -0.356,4.607 -0.398,4.553 -0.449,4.469 -0.508,4.356 -0.676,4.054 -0.861,3.902 -1.063,3.902 c -0.175,0 -0.307,0.064 -0.397,0.193 -0.089,0.128 -0.134,0.318 -0.134,0.57 0,0.261 0.029,0.454 0.084,0.583 0.057,0.128 0.168,0.256 0.336,0.384 0.273,0.202 0.56,0.351 0.862,0.448 0.302,0.098 0.63,0.147 0.983,0.147 0.661,0 1.185,-0.199 1.573,-0.595 C 2.632,5.236 2.825,4.704 2.825,4.036 2.825,3.59 2.726,3.161 2.524,2.752 2.323,2.342 2.012,1.934 1.589,1.526 Z"
           style="fill:#113322;fill-opacity:1;fill-rule:nonzero;stroke:none"
           id="path50" />
      </g>
      <g
         id="g52"
         transform="translate(26.36,98.1238)"
         clip-path="url(#clipPath1338)"
         style="fill:#113322;fill-opacity:1">
        <path
           d="m 0,0 v -5.211 h 2.486 c 1.534,0 2.608,0.199 3.222,0.598 0.613,0.399 0.921,1.066 0.921,1.998 0,0.921 -0.28,1.587 -0.838,1.999 C 5.232,-0.206 4.333,0 3.093,0 Z M 7.568,-7.844 C 7.887,-8.04 8.2,-8.396 8.507,-8.912 8.556,-8.986 8.599,-9.048 8.636,-9.096 l 3.001,-4.751 h 0.203 0.368 c 0.712,0 1.249,-0.166 1.612,-0.497 0.361,-0.332 0.543,-0.829 0.543,-1.492 0,-0.724 -0.182,-1.246 -0.543,-1.565 -0.363,-0.319 -0.961,-0.479 -1.796,-0.479 H 9.759 c -0.835,0 -1.485,0.363 -1.952,1.087 l -0.056,0.037 -4.51,6.942 c -0.173,0.27 -0.369,0.476 -0.59,0.616 -0.221,0.141 -0.454,0.212 -0.699,0.212 H 0.221 v -4.861 h 0.294 c 0.663,0 1.163,-0.168 1.501,-0.507 0.337,-0.337 0.506,-0.831 0.506,-1.482 0,-0.724 -0.175,-1.246 -0.525,-1.565 C 1.648,-17.72 1.055,-17.88 0.221,-17.88 h -4.752 c -0.822,0 -1.411,0.16 -1.767,0.479 -0.356,0.319 -0.534,0.841 -0.534,1.565 0,0.651 0.169,1.145 0.506,1.482 0.338,0.339 0.832,0.507 1.482,0.507 h 0.313 V -0.11 h -0.313 c -0.637,0 -1.128,0.174 -1.473,0.525 -0.343,0.35 -0.515,0.85 -0.515,1.5 0,0.712 0.181,1.231 0.543,1.556 0.362,0.325 0.949,0.488 1.758,0.488 h 8.49 c 2.602,0 4.572,-0.506 5.911,-1.519 1.338,-1.012 2.007,-2.507 2.007,-4.484 0,-1.375 -0.371,-2.565 -1.115,-3.572 C 10.02,-6.623 8.955,-7.365 7.568,-7.844"
           style="fill:#113322;fill-opacity:1;fill-rule:nonzero;stroke:none"
           id="path54" />
      </g>
      <g
         id="g56"
         transform="translate(54.3346,98.0137)"
         clip-path="url(#clipPath1332)"
         style="fill:#113322;fill-opacity:1">
        <path
           d="m 0,0 -2.67,-7.771 h 5.34 z m 9.65,-13.737 h 0.313 c 0.662,0 1.165,-0.168 1.51,-0.507 0.343,-0.337 0.515,-0.831 0.515,-1.482 0,-0.724 -0.182,-1.246 -0.543,-1.565 C 11.083,-17.61 10.484,-17.77 9.65,-17.77 H 4.107 c -0.848,0 -1.45,0.157 -1.805,0.47 -0.357,0.313 -0.534,0.838 -0.534,1.574 0,0.712 0.177,1.222 0.534,1.529 0.355,0.307 0.957,0.46 1.805,0.46 h 0.644 l -0.754,2.154 h -7.956 l -0.792,-2.154 h 0.645 c 0.835,0 1.433,-0.157 1.796,-0.47 0.361,-0.313 0.543,-0.819 0.543,-1.519 0,-0.724 -0.182,-1.246 -0.543,-1.565 -0.363,-0.319 -0.961,-0.479 -1.796,-0.479 h -4.751 c -0.847,0 -1.448,0.16 -1.804,0.479 -0.356,0.319 -0.534,0.841 -0.534,1.565 0,0.651 0.172,1.145 0.515,1.482 0.343,0.339 0.847,0.507 1.51,0.507 h 0.313 L -3.922,0 h -1.473 c -0.835,0 -1.433,0.159 -1.796,0.479 -0.362,0.319 -0.543,0.834 -0.543,1.546 0,0.725 0.181,1.246 0.543,1.565 0.363,0.32 0.961,0.479 1.796,0.479 H 1.51 c 1.093,0 1.86,-0.589 2.302,-1.768 V 2.246 Z"
           style="fill:#113322;fill-opacity:1;fill-rule:nonzero;stroke:none"
           id="path58" />
      </g>
      <g
         id="g60"
         transform="translate(79.709,98.0137)"
         clip-path="url(#clipPath1326)"
         style="fill:#113322;fill-opacity:1">
        <path
           d="m 0,0 v -13.737 h 3.093 c 0.835,0 1.433,-0.157 1.795,-0.47 0.363,-0.313 0.544,-0.819 0.544,-1.519 0,-0.712 -0.184,-1.231 -0.553,-1.555 C 4.511,-17.607 3.915,-17.77 3.093,-17.77 H -7.845 c -0.835,0 -1.433,0.16 -1.795,0.479 -0.362,0.319 -0.544,0.841 -0.544,1.565 0,0.712 0.178,1.222 0.534,1.529 0.356,0.307 0.958,0.46 1.805,0.46 h 3.094 V 0 h -3.094 c -0.835,0 -1.433,0.159 -1.795,0.479 -0.362,0.319 -0.544,0.834 -0.544,1.546 0,0.725 0.178,1.24 0.534,1.548 0.356,0.305 0.958,0.459 1.805,0.459 H 3.093 c 0.871,0 1.48,-0.154 1.823,-0.459 C 5.26,3.265 5.432,2.75 5.432,2.025 5.432,1.313 5.254,0.798 4.898,0.479 4.541,0.159 3.94,0 3.093,0 Z"
           style="fill:#113322;fill-opacity:1;fill-rule:nonzero;stroke:none"
           id="path62" />
      </g>
      <g
         id="g64"
         transform="translate(104.2364,87.8677)"
         clip-path="url(#clipPath1320)"
         style="fill:#113322;fill-opacity:1">
        <path
           d="m 0,0 v 10.146 h -1.013 c -0.81,0 -1.39,0.159 -1.74,0.479 -0.35,0.319 -0.524,0.834 -0.524,1.546 0,0.712 0.174,1.231 0.524,1.556 0.35,0.325 0.93,0.488 1.74,0.488 h 5.23 c 0.797,0 1.374,-0.163 1.73,-0.488 0.356,-0.325 0.534,-0.844 0.534,-1.556 0,-0.65 -0.168,-1.15 -0.506,-1.5 C 5.638,10.32 5.156,10.146 4.53,10.146 H 4.217 V -6.574 C 4.217,-7.151 4.156,-7.513 4.032,-7.66 3.91,-7.808 3.633,-7.881 3.204,-7.881 H 1.362 c -0.588,0 -1.003,0.062 -1.242,0.184 -0.24,0.123 -0.446,0.337 -0.617,0.644 L -8.158,6.408 v -9.999 h 1.068 c 0.798,0 1.369,-0.153 1.713,-0.46 0.344,-0.307 0.516,-0.817 0.516,-1.529 0,-0.724 -0.175,-1.246 -0.525,-1.565 -0.35,-0.319 -0.918,-0.479 -1.704,-0.479 h -5.284 c -0.798,0 -1.375,0.16 -1.731,0.479 -0.356,0.319 -0.534,0.841 -0.534,1.565 0,0.651 0.166,1.145 0.497,1.482 0.331,0.339 0.822,0.507 1.474,0.507 h 0.294 v 13.737 h -0.294 c -0.627,0 -1.112,0.174 -1.456,0.525 -0.343,0.35 -0.515,0.85 -0.515,1.5 0,0.712 0.181,1.231 0.543,1.556 0.362,0.325 0.937,0.488 1.722,0.488 h 3.02 c 0.724,0 1.215,-0.095 1.473,-0.285 0.257,-0.191 0.546,-0.574 0.866,-1.151 z"
           style="fill:#113322;fill-opacity:1;fill-rule:nonzero;stroke:none"
           id="path66" />
      </g>
      <g
         id="g68"
         transform="translate(127.1984,101.6596)"
         clip-path="url(#clipPath1314)"
         style="fill:#113322;fill-opacity:1">
        <path
           d="m 0,0 c 0.183,0.393 0.393,0.663 0.626,0.81 0.233,0.147 0.589,0.221 1.068,0.221 0.711,0 1.169,-0.132 1.371,-0.396 0.203,-0.264 0.316,-0.789 0.341,-1.574 l 0.073,-3.536 v -0.202 c 0,-0.725 -0.144,-1.231 -0.432,-1.519 -0.288,-0.289 -0.777,-0.433 -1.464,-0.433 -0.872,0 -1.522,0.466 -1.952,1.399 -0.061,0.135 -0.11,0.246 -0.147,0.332 -0.38,0.761 -0.896,1.334 -1.547,1.722 -0.651,0.386 -1.417,0.579 -2.301,0.579 -1.106,0 -1.998,-0.255 -2.68,-0.764 -0.681,-0.509 -1.021,-1.163 -1.021,-1.961 0,-1.129 1.559,-2.019 4.677,-2.67 0.527,-0.11 0.944,-0.196 1.252,-0.258 2.357,-0.515 4.063,-1.301 5.119,-2.357 1.056,-1.055 1.583,-2.498 1.583,-4.327 0,-2.259 -0.767,-3.998 -2.301,-5.22 -1.535,-1.222 -3.733,-1.832 -6.592,-1.832 -1.118,0 -2.115,0.073 -2.992,0.221 -0.879,0.147 -1.729,0.374 -2.551,0.681 -0.196,-0.319 -0.424,-0.549 -0.681,-0.69 -0.259,-0.141 -0.615,-0.212 -1.068,-0.212 -0.774,0 -1.314,0.147 -1.621,0.442 -0.307,0.294 -0.467,0.815 -0.479,1.565 l -0.074,4.328 v 0.202 c 0,0.81 0.151,1.374 0.452,1.694 0.3,0.319 0.826,0.478 1.574,0.478 0.798,0 1.467,-0.577 2.007,-1.73 0.123,-0.283 0.221,-0.498 0.295,-0.644 0.478,-0.946 1.145,-1.652 1.998,-2.119 0.853,-0.466 1.899,-0.699 3.14,-0.699 1.128,0 2.007,0.233 2.633,0.699 0.626,0.467 0.939,1.124 0.939,1.971 0,1.313 -1.419,2.308 -4.254,2.983 -0.847,0.196 -1.516,0.361 -2.007,0.497 -2.382,0.626 -4.033,1.409 -4.954,2.347 -0.92,0.94 -1.38,2.226 -1.38,3.858 0,2.1 0.788,3.815 2.366,5.147 1.577,1.332 3.618,1.998 6.123,1.998 0.834,0 1.653,-0.086 2.458,-0.257 C -1.599,0.601 -0.799,0.343 0,0"
           style="fill:#113322;fill-opacity:1;fill-rule:nonzero;stroke:none"
           id="path70" />
      </g>
      <g
         id="g72"
         transform="translate(161.0837,98.0871)"
         clip-path="url(#clipPath1308)"
         style="fill:#113322;fill-opacity:1">
        <path
           d="m 0,0 v -13.811 h 1.05 c 2.32,0 4.032,0.568 5.137,1.704 1.106,1.135 1.658,2.881 1.658,5.238 0,2.321 -0.562,4.051 -1.685,5.194 C 5.037,-0.534 3.345,0.037 1.087,0.037 0.792,0.037 0.568,0.034 0.415,0.028 0.261,0.021 0.123,0.013 0,0 m -4.751,-13.811 v 13.738 h -0.313 c -0.662,0 -1.166,0.171 -1.509,0.515 -0.344,0.343 -0.516,0.847 -0.516,1.51 0,0.712 0.185,1.231 0.552,1.556 0.369,0.325 0.964,0.488 1.786,0.488 h 3.462 1.087 c 2.565,0 4.444,-0.11 5.634,-0.331 1.191,-0.221 2.204,-0.59 3.039,-1.105 1.485,-0.884 2.624,-2.146 3.416,-3.785 0.791,-1.638 1.187,-3.532 1.187,-5.68 0,-2.271 -0.451,-4.257 -1.353,-5.957 -0.902,-1.7 -2.182,-2.986 -3.84,-3.857 -0.748,-0.394 -1.626,-0.679 -2.632,-0.856 -1.007,-0.179 -2.505,-0.268 -4.494,-0.268 h -2.044 -3.462 c -0.847,0 -1.448,0.157 -1.804,0.47 -0.357,0.313 -0.534,0.838 -0.534,1.574 0,0.65 0.172,1.145 0.516,1.482 0.343,0.338 0.847,0.506 1.509,0.506 z"
           style="fill:#113322;fill-opacity:1;fill-rule:nonzero;stroke:none"
           id="path74" />
      </g>
      <g
         id="g76"
         transform="translate(186.7152,98.4189)"
         clip-path="url(#clipPath1302)"
         style="fill:#113322;fill-opacity:1">
        <path
           d="m 0,0 c -1.583,0 -2.827,-0.639 -3.729,-1.915 -0.901,-1.277 -1.353,-3.051 -1.353,-5.322 0,-2.271 0.454,-4.051 1.363,-5.34 0.908,-1.289 2.147,-1.933 3.719,-1.933 1.583,0 2.829,0.641 3.738,1.924 0.909,1.283 1.362,3.066 1.362,5.349 0,2.271 -0.451,4.045 -1.353,5.322 C 2.845,-0.639 1.596,0 0,0 m 0,4.272 c 3.02,0 5.505,-1.081 7.458,-3.241 1.952,-2.161 2.928,-4.917 2.928,-8.268 0,-3.376 -0.971,-6.138 -2.91,-8.287 -1.94,-2.147 -4.431,-3.221 -7.476,-3.221 -3.008,0 -5.493,1.083 -7.457,3.249 -1.964,2.167 -2.946,4.92 -2.946,8.259 0,3.364 0.972,6.122 2.919,8.277 1.945,2.154 4.439,3.232 7.484,3.232"
           style="fill:#113322;fill-opacity:1;fill-rule:nonzero;stroke:none"
           id="path78" />
      </g>
      <g
         id="g80"
         transform="translate(204.0429,98.0137)"
         clip-path="url(#clipPath1296)"
         style="fill:#113322;fill-opacity:1">
        <path
           d="m 0,0 0.663,-10.791 2.265,7.956 c 0.171,0.588 0.454,1.03 0.847,1.325 0.392,0.294 0.902,0.442 1.528,0.442 0.626,0 1.126,-0.141 1.501,-0.424 0.374,-0.283 0.654,-0.73 0.837,-1.343 L 9.944,-10.791 10.588,0 H 10.091 C 9.379,0 8.851,0.165 8.507,0.497 8.164,0.828 7.992,1.338 7.992,2.025 c 0,0.737 0.172,1.262 0.515,1.574 0.344,0.313 0.94,0.47 1.787,0.47 h 4.437 c 0.835,0 1.428,-0.159 1.777,-0.479 0.35,-0.319 0.525,-0.84 0.525,-1.565 0,-0.663 -0.169,-1.166 -0.507,-1.51 C 16.189,0.172 15.694,0 15.044,0 h -0.313 l -1.767,-16.223 c -0.062,-0.639 -0.185,-1.056 -0.369,-1.252 -0.184,-0.196 -0.614,-0.295 -1.289,-0.295 h -0.865 c -0.516,0 -0.893,0.095 -1.132,0.286 -0.24,0.19 -0.476,0.684 -0.71,1.482 L 5.23,-5.064 1.988,-16.002 c -0.221,-0.773 -0.45,-1.261 -0.69,-1.463 -0.239,-0.204 -0.623,-0.305 -1.15,-0.305 h -0.866 c -0.663,0 -1.083,0.095 -1.261,0.286 -0.178,0.19 -0.298,0.611 -0.359,1.261 L -4.161,0 h -0.295 c -0.651,0 -1.148,0.172 -1.491,0.515 -0.344,0.344 -0.516,0.847 -0.516,1.51 0,0.725 0.178,1.246 0.534,1.565 0.356,0.32 0.945,0.479 1.768,0.479 H 0.295 C 1.13,4.069 1.722,3.91 2.072,3.59 2.421,3.271 2.597,2.75 2.597,2.025 2.597,1.338 2.424,0.828 2.081,0.497 1.737,0.165 1.203,0 0.479,0 Z"
           style="fill:#113322;fill-opacity:1;fill-rule:nonzero;stroke:none"
           id="path82" />
      </g>
      <g
         id="g84"
         transform="translate(236.2493,87.8677)"
         clip-path="url(#clipPath1290)"
         style="fill:#113322;fill-opacity:1">
        <path
           d="m 0,0 v 10.146 h -1.013 c -0.81,0 -1.39,0.159 -1.74,0.479 -0.35,0.319 -0.524,0.834 -0.524,1.546 0,0.712 0.174,1.231 0.524,1.556 0.35,0.325 0.93,0.488 1.74,0.488 h 5.23 c 0.797,0 1.374,-0.163 1.73,-0.488 0.356,-0.325 0.534,-0.844 0.534,-1.556 0,-0.65 -0.168,-1.15 -0.506,-1.5 C 5.638,10.32 5.156,10.146 4.53,10.146 H 4.217 V -6.574 C 4.217,-7.151 4.156,-7.513 4.032,-7.66 3.91,-7.808 3.633,-7.881 3.204,-7.881 H 1.362 c -0.588,0 -1.003,0.062 -1.242,0.184 -0.24,0.123 -0.446,0.337 -0.617,0.644 L -8.158,6.408 v -9.999 h 1.068 c 0.798,0 1.369,-0.153 1.713,-0.46 0.344,-0.307 0.516,-0.817 0.516,-1.529 0,-0.724 -0.175,-1.246 -0.525,-1.565 -0.35,-0.319 -0.918,-0.479 -1.704,-0.479 h -5.284 c -0.798,0 -1.375,0.16 -1.731,0.479 -0.356,0.319 -0.534,0.841 -0.534,1.565 0,0.651 0.166,1.145 0.497,1.482 0.331,0.339 0.822,0.507 1.474,0.507 h 0.294 v 13.737 h -0.294 c -0.627,0 -1.112,0.174 -1.456,0.525 -0.343,0.35 -0.515,0.85 -0.515,1.5 0,0.712 0.181,1.231 0.543,1.556 0.362,0.325 0.937,0.488 1.722,0.488 h 3.02 c 0.724,0 1.215,-0.095 1.473,-0.285 0.257,-0.191 0.546,-0.574 0.866,-1.151 z"
           style="fill:#113322;fill-opacity:1;fill-rule:nonzero;stroke:none"
           id="path86" />
      </g>
      <g
         id="g88"
         transform="translate(259.892,98.198)"
         clip-path="url(#clipPath1284)"
         style="fill:#113322;fill-opacity:1">
        <path
           d="m 0,0 h -8.562 v -4.714 h 3.241 v 0.221 c 0,0.7 0.153,1.221 0.46,1.565 0.306,0.344 0.773,0.516 1.399,0.516 0.553,0 1.004,-0.157 1.354,-0.47 0.349,-0.313 0.525,-0.709 0.525,-1.188 0,-0.025 0.006,-0.104 0.018,-0.24 0.012,-0.135 0.018,-0.27 0.018,-0.404 v -3.812 c 0,-0.822 -0.147,-1.412 -0.441,-1.768 -0.295,-0.356 -0.774,-0.534 -1.437,-0.534 -0.626,0 -1.098,0.166 -1.418,0.498 -0.319,0.331 -0.478,0.822 -0.478,1.473 v 0.331 h -3.241 v -5.506 H 0 v 2.192 c 0,0.822 0.157,1.411 0.47,1.767 0.313,0.356 0.825,0.534 1.537,0.534 0.701,0 1.201,-0.175 1.501,-0.525 0.301,-0.349 0.451,-0.942 0.451,-1.776 v -4.456 c 0,-0.663 -0.129,-1.105 -0.386,-1.326 -0.258,-0.221 -0.768,-0.332 -1.529,-0.332 h -15.081 c -0.81,0 -1.39,0.159 -1.74,0.479 -0.349,0.319 -0.525,0.84 -0.525,1.565 0,0.65 0.166,1.145 0.498,1.482 0.331,0.338 0.815,0.506 1.454,0.506 h 0.313 v 13.738 h -0.313 c -0.626,0 -1.108,0.174 -1.445,0.525 -0.338,0.35 -0.507,0.85 -0.507,1.5 0,0.712 0.178,1.231 0.534,1.556 0.356,0.325 0.933,0.488 1.731,0.488 H 2.044 c 0.749,0 1.255,-0.114 1.52,-0.34 C 3.827,3.317 3.959,2.866 3.959,2.191 v -4.125 c 0,-0.834 -0.153,-1.433 -0.46,-1.795 C 3.192,-4.091 2.695,-4.272 2.007,-4.272 1.295,-4.272 0.783,-4.088 0.47,-3.72 0.157,-3.352 0,-2.756 0,-1.934 Z"
           style="fill:#113322;fill-opacity:1;fill-rule:nonzero;stroke:none"
           id="path90" />
      </g>
      <g
         id="g92"
         transform="translate(274.2742,98.1238)"
         clip-path="url(#clipPath1278)"
         style="fill:#113322;fill-opacity:1">
        <path
           d="m 0,0 v -5.211 h 2.486 c 1.534,0 2.608,0.199 3.222,0.598 0.613,0.399 0.921,1.066 0.921,1.998 0,0.921 -0.28,1.587 -0.838,1.999 C 5.232,-0.206 4.333,0 3.093,0 Z M 7.568,-7.844 C 7.887,-8.04 8.2,-8.396 8.507,-8.912 8.556,-8.986 8.599,-9.048 8.636,-9.096 l 3.001,-4.751 h 0.203 0.368 c 0.712,0 1.249,-0.166 1.612,-0.497 0.361,-0.332 0.543,-0.829 0.543,-1.492 0,-0.724 -0.182,-1.246 -0.543,-1.565 -0.363,-0.319 -0.961,-0.479 -1.796,-0.479 H 9.759 c -0.835,0 -1.485,0.363 -1.952,1.087 l -0.056,0.037 -4.51,6.942 c -0.173,0.27 -0.369,0.476 -0.59,0.616 -0.221,0.141 -0.454,0.212 -0.699,0.212 H 0.221 v -4.861 h 0.294 c 0.663,0 1.163,-0.168 1.501,-0.507 0.337,-0.337 0.506,-0.831 0.506,-1.482 0,-0.724 -0.175,-1.246 -0.525,-1.565 C 1.648,-17.72 1.055,-17.88 0.221,-17.88 h -4.752 c -0.822,0 -1.411,0.16 -1.767,0.479 -0.356,0.319 -0.534,0.841 -0.534,1.565 0,0.651 0.169,1.145 0.506,1.482 0.338,0.339 0.832,0.507 1.482,0.507 h 0.313 V -0.11 h -0.313 c -0.637,0 -1.128,0.174 -1.473,0.525 -0.343,0.35 -0.515,0.85 -0.515,1.5 0,0.712 0.181,1.231 0.543,1.556 0.362,0.325 0.949,0.488 1.758,0.488 h 8.49 c 2.602,0 4.572,-0.506 5.911,-1.519 1.338,-1.012 2.007,-2.507 2.007,-4.484 0,-1.375 -0.371,-2.565 -1.115,-3.572 C 10.02,-6.623 8.955,-7.365 7.568,-7.844"
           style="fill:#113322;fill-opacity:1;fill-rule:nonzero;stroke:none"
           id="path94" />
      </g>
      <g
         id="g96"
         transform="translate(304.4725,101.6596)"
         clip-path="url(#clipPath1272)"
         style="fill:#113322;fill-opacity:1">
        <path
           d="m 0,0 c 0.183,0.393 0.393,0.663 0.626,0.81 0.233,0.147 0.589,0.221 1.068,0.221 0.711,0 1.169,-0.132 1.371,-0.396 0.203,-0.264 0.316,-0.789 0.341,-1.574 l 0.073,-3.536 v -0.202 c 0,-0.725 -0.144,-1.231 -0.432,-1.519 -0.288,-0.289 -0.777,-0.433 -1.464,-0.433 -0.872,0 -1.522,0.466 -1.952,1.399 -0.061,0.135 -0.11,0.246 -0.147,0.332 -0.38,0.761 -0.896,1.334 -1.547,1.722 -0.651,0.386 -1.417,0.579 -2.301,0.579 -1.106,0 -1.998,-0.255 -2.68,-0.764 -0.681,-0.509 -1.021,-1.163 -1.021,-1.961 0,-1.129 1.559,-2.019 4.677,-2.67 0.527,-0.11 0.944,-0.196 1.252,-0.258 2.357,-0.515 4.063,-1.301 5.119,-2.357 1.056,-1.055 1.583,-2.498 1.583,-4.327 0,-2.259 -0.767,-3.998 -2.301,-5.22 -1.535,-1.222 -3.733,-1.832 -6.592,-1.832 -1.118,0 -2.115,0.073 -2.992,0.221 -0.879,0.147 -1.729,0.374 -2.552,0.681 -0.195,-0.319 -0.423,-0.549 -0.68,-0.69 -0.259,-0.141 -0.615,-0.212 -1.068,-0.212 -0.774,0 -1.314,0.147 -1.621,0.442 -0.307,0.294 -0.467,0.815 -0.479,1.565 l -0.074,4.328 v 0.202 c 0,0.81 0.151,1.374 0.452,1.694 0.301,0.319 0.826,0.478 1.574,0.478 0.798,0 1.467,-0.577 2.007,-1.73 0.123,-0.283 0.221,-0.498 0.295,-0.644 0.478,-0.946 1.145,-1.652 1.998,-2.119 0.853,-0.466 1.899,-0.699 3.14,-0.699 1.128,0 2.007,0.233 2.633,0.699 0.626,0.467 0.939,1.124 0.939,1.971 0,1.313 -1.419,2.308 -4.254,2.983 -0.847,0.196 -1.516,0.361 -2.007,0.497 -2.382,0.626 -4.033,1.409 -4.954,2.347 -0.92,0.94 -1.38,2.226 -1.38,3.858 0,2.1 0.788,3.815 2.366,5.147 1.577,1.332 3.618,1.998 6.123,1.998 0.834,0 1.653,-0.086 2.458,-0.257 C -1.599,0.601 -0.799,0.343 0,0"
           style="fill:#113322;fill-opacity:1;fill-rule:nonzero;stroke:none"
           id="path98" />
      </g>
      <g
         id="g100"
         transform="translate(315.607,103.7128)"
         clip-path="url(#clipPath1266)"
         style="fill:#113322;fill-opacity:1">
        <path
           d="M 0,0 H 4.397 C 4.575,0 4.724,-0.041 4.843,-0.123 4.962,-0.207 5.022,-0.305 5.022,-0.426 5.022,-0.529 5.01,-0.625 4.989,-0.714 4.966,-0.805 4.932,-0.887 4.888,-0.962 l -5.49,-10.646 c -0.119,-0.221 -0.249,-0.387 -0.391,-0.49 -0.142,-0.104 -0.302,-0.156 -0.48,-0.156 -0.089,0 -0.16,0.004 -0.211,0.012 -0.053,0.007 -0.101,0.019 -0.146,0.033 l -1.406,0.512 c -0.208,0.06 -0.368,0.154 -0.48,0.279 -0.112,0.128 -0.167,0.272 -0.167,0.435 0,0.149 0.004,0.25 0.011,0.303 0.007,0.051 0.018,0.109 0.034,0.166 l 2.611,9.463 c 0.134,0.462 0.279,0.753 0.435,0.871 C -0.636,-0.06 -0.371,0 0,0"
           style="fill:#113322;fill-opacity:1;fill-rule:nonzero;stroke:none"
           id="path102" />
      </g>
      <g
         id="g104"
         transform="translate(84.3481,57.6729)"
         clip-path="url(#clipPath1260)"
         style="fill:#113322;fill-opacity:1">
        <path
           d="m 0,0 0.519,-0.187 c 0.07,-0.026 0.126,-0.063 0.167,-0.109 0.04,-0.046 0.06,-0.099 0.06,-0.158 0,-0.049 -0.001,-0.084 -0.004,-0.106 C 0.739,-0.581 0.735,-0.6 0.73,-0.616 l -0.949,-3.439 c -0.043,-0.162 -0.093,-0.263 -0.15,-0.304 -0.057,-0.04 -0.155,-0.061 -0.296,-0.061 h -1.589 c -0.071,0 -0.127,0.014 -0.171,0.041 -0.043,0.027 -0.065,0.062 -0.065,0.105 0,0.038 0.005,0.072 0.012,0.102 0.009,0.029 0.021,0.058 0.037,0.085 l 1.995,3.884 c 0.043,0.081 0.091,0.141 0.142,0.179 0.052,0.038 0.11,0.056 0.175,0.056 0.01,0 0.024,-0.002 0.04,-0.008 C -0.073,0.019 -0.043,0.011 0,0 m -3.171,0 0.495,-0.187 c 0.081,-0.026 0.143,-0.063 0.186,-0.109 0.044,-0.046 0.065,-0.099 0.065,-0.158 0,-0.022 -0.002,-0.045 -0.008,-0.069 -0.005,-0.024 -0.013,-0.056 -0.024,-0.093 L -3.406,-4.055 C -3.455,-4.217 -3.507,-4.318 -3.564,-4.359 -3.621,-4.399 -3.717,-4.42 -3.852,-4.42 H -5.45 c -0.07,0 -0.125,0.014 -0.166,0.041 -0.04,0.027 -0.061,0.062 -0.061,0.105 0,0.022 0.006,0.049 0.016,0.081 0.011,0.033 0.028,0.068 0.049,0.106 l 1.979,3.884 c 0.043,0.081 0.091,0.141 0.142,0.179 0.051,0.038 0.107,0.056 0.166,0.056 0.022,0 0.042,-0.002 0.061,-0.008 C -3.245,0.019 -3.214,0.011 -3.171,0"
           style="fill:#113322;fill-opacity:1;fill-rule:nonzero;stroke:none"
           id="path106" />
      </g>
      <g
         id="g108"
         transform="translate(97.872,57.1539)"
         clip-path="url(#clipPath1254)"
         style="fill:#113322;fill-opacity:1">
        <path
           d="m 0,0 c 0.108,0.195 0.219,0.333 0.333,0.414 0.113,0.081 0.256,0.121 0.429,0.121 0.265,0 0.453,-0.07 0.564,-0.211 0.111,-0.14 0.166,-0.381 0.166,-0.721 l 0.016,-2.109 c 0,-0.373 -0.06,-0.624 -0.182,-0.754 -0.121,-0.13 -0.342,-0.195 -0.661,-0.195 -0.227,0 -0.401,0.055 -0.523,0.163 -0.121,0.108 -0.226,0.309 -0.312,0.603 -0.141,0.515 -0.365,0.885 -0.673,1.11 -0.308,0.225 -0.736,0.338 -1.282,0.338 -0.833,0 -1.47,-0.281 -1.914,-0.844 -0.443,-0.563 -0.665,-1.378 -0.665,-2.444 0,-1.061 0.225,-1.876 0.673,-2.445 0.449,-0.568 1.09,-0.852 1.923,-0.852 0.567,0 1.193,0.189 1.877,0.568 0.684,0.378 1.115,0.568 1.293,0.568 0.211,0 0.388,-0.09 0.532,-0.268 0.143,-0.179 0.215,-0.4 0.215,-0.665 0,-0.476 -0.419,-0.925 -1.258,-1.346 -0.838,-0.422 -1.781,-0.633 -2.83,-0.633 -1.416,0 -2.562,0.468 -3.438,1.403 -0.876,0.935 -1.314,2.157 -1.314,3.666 0,1.454 0.443,2.662 1.33,3.625 0.887,0.962 2.011,1.443 3.373,1.443 0.384,0 0.763,-0.043 1.136,-0.129 C -0.819,0.319 -0.422,0.184 0,0"
           style="fill:#113322;fill-opacity:1;fill-rule:nonzero;stroke:none"
           id="path110" />
      </g>
      <g
         id="g112"
         transform="translate(108.6142,55.8077)"
         clip-path="url(#clipPath1248)"
         style="fill:#113322;fill-opacity:1">
        <path
           d="m 0,0 c -0.697,0 -1.245,-0.281 -1.642,-0.843 -0.398,-0.563 -0.596,-1.344 -0.596,-2.344 0,-1 0.199,-1.784 0.6,-2.352 0.4,-0.568 0.946,-0.852 1.638,-0.852 0.697,0 1.246,0.283 1.646,0.848 0.4,0.565 0.601,1.35 0.601,2.356 0,1 -0.199,1.781 -0.597,2.344 C 1.253,-0.281 0.703,0 0,0 m 0,1.881 c 1.33,0 2.425,-0.475 3.284,-1.427 0.86,-0.952 1.29,-2.165 1.29,-3.641 0,-1.487 -0.428,-2.704 -1.282,-3.649 C 2.438,-7.783 1.341,-8.256 0,-8.256 c -1.325,0 -2.419,0.477 -3.285,1.432 -0.864,0.954 -1.297,2.166 -1.297,3.637 0,1.481 0.428,2.696 1.285,3.645 C -2.44,1.407 -1.341,1.881 0,1.881"
           style="fill:#113322;fill-opacity:1;fill-rule:nonzero;stroke:none"
           id="path114" />
      </g>
      <g
         id="g116"
         transform="translate(123.7841,51.1607)"
         clip-path="url(#clipPath1242)"
         style="fill:#113322;fill-opacity:1">
        <path
           d="m 0,0 v 4.469 h -0.446 c -0.357,0 -0.612,0.07 -0.766,0.21 -0.154,0.141 -0.231,0.368 -0.231,0.682 0,0.313 0.077,0.542 0.231,0.685 0.154,0.143 0.409,0.215 0.766,0.215 H 1.857 C 2.208,6.261 2.463,6.189 2.62,6.046 2.776,5.903 2.854,5.674 2.854,5.361 2.854,5.074 2.78,4.854 2.632,4.7 2.483,4.545 2.271,4.469 1.995,4.469 H 1.857 V -2.895 C 1.857,-3.149 1.83,-3.309 1.776,-3.374 1.722,-3.438 1.601,-3.471 1.411,-3.471 H 0.6 c -0.259,0 -0.442,0.027 -0.547,0.081 -0.106,0.054 -0.196,0.149 -0.272,0.284 l -3.374,5.928 v -4.404 h 0.471 c 0.351,0 0.602,-0.067 0.754,-0.202 0.151,-0.135 0.227,-0.36 0.227,-0.673 0,-0.319 -0.077,-0.549 -0.231,-0.689 -0.154,-0.141 -0.404,-0.211 -0.75,-0.211 H -5.45 c -0.351,0 -0.605,0.07 -0.762,0.211 -0.157,0.14 -0.235,0.37 -0.235,0.689 0,0.286 0.073,0.504 0.218,0.653 0.146,0.148 0.363,0.222 0.649,0.222 h 0.13 v 6.051 h -0.13 c -0.275,0 -0.489,0.076 -0.64,0.231 -0.152,0.154 -0.227,0.374 -0.227,0.661 0,0.313 0.079,0.542 0.239,0.685 0.159,0.143 0.412,0.215 0.758,0.215 h 1.33 c 0.319,0 0.536,-0.042 0.649,-0.126 0.114,-0.084 0.241,-0.253 0.381,-0.507 z"
           style="fill:#113322;fill-opacity:1;fill-rule:nonzero;stroke:none"
           id="path118" />
      </g>
      <g
         id="g120"
         transform="translate(137.2187,57.2349)"
         clip-path="url(#clipPath1236)"
         style="fill:#113322;fill-opacity:1">
        <path
           d="M 0,0 C 0.081,0.173 0.173,0.292 0.276,0.357 0.378,0.422 0.535,0.454 0.746,0.454 1.06,0.454 1.261,0.396 1.35,0.28 1.439,0.164 1.489,-0.067 1.5,-0.414 L 1.533,-1.971 V -2.06 C 1.533,-2.379 1.469,-2.602 1.342,-2.729 1.215,-2.856 1,-2.919 0.697,-2.919 c -0.384,0 -0.67,0.205 -0.859,0.616 -0.027,0.059 -0.049,0.108 -0.065,0.146 -0.168,0.335 -0.395,0.588 -0.681,0.758 -0.287,0.17 -0.625,0.255 -1.014,0.255 -0.487,0 -0.88,-0.112 -1.18,-0.336 -0.3,-0.225 -0.45,-0.512 -0.45,-0.864 0,-0.497 0.686,-0.889 2.06,-1.176 0.232,-0.048 0.416,-0.086 0.551,-0.113 1.038,-0.227 1.79,-0.573 2.255,-1.038 0.465,-0.465 0.697,-1.1 0.697,-1.906 0,-0.995 -0.338,-1.761 -1.013,-2.299 -0.676,-0.538 -1.644,-0.807 -2.904,-0.807 -0.492,0 -0.931,0.033 -1.318,0.097 -0.386,0.065 -0.761,0.165 -1.123,0.3 -0.087,-0.14 -0.186,-0.241 -0.3,-0.304 -0.113,-0.062 -0.27,-0.093 -0.47,-0.093 -0.341,0 -0.579,0.065 -0.714,0.195 -0.135,0.129 -0.206,0.359 -0.211,0.689 l -0.032,1.906 v 0.089 c 0,0.357 0.066,0.605 0.199,0.746 0.132,0.141 0.363,0.211 0.693,0.211 0.351,0 0.646,-0.254 0.884,-0.762 0.054,-0.125 0.097,-0.22 0.13,-0.284 0.21,-0.417 0.503,-0.728 0.879,-0.933 0.376,-0.205 0.837,-0.308 1.383,-0.308 0.498,0 0.884,0.103 1.16,0.308 0.276,0.205 0.413,0.495 0.413,0.868 0,0.578 -0.624,1.016 -1.873,1.313 -0.373,0.087 -0.668,0.16 -0.884,0.22 -1.049,0.276 -1.776,0.62 -2.181,1.033 -0.406,0.414 -0.608,0.98 -0.608,1.7 0,0.924 0.347,1.68 1.042,2.266 0.694,0.587 1.593,0.88 2.696,0.88 0.368,0 0.728,-0.037 1.083,-0.113 C -0.704,0.265 -0.352,0.151 0,0"
           style="fill:#113322;fill-opacity:1;fill-rule:nonzero;stroke:none"
           id="path122" />
      </g>
      <g
         id="g124"
         transform="translate(150.807,55.7105)"
         clip-path="url(#clipPath1230)"
         style="fill:#113322;fill-opacity:1">
        <path
           d="m 0,0 h -3.771 v -2.076 h 1.427 v 0.097 c 0,0.308 0.068,0.538 0.203,0.689 0.135,0.152 0.341,0.228 0.617,0.228 0.243,0 0.442,-0.069 0.595,-0.208 0.155,-0.137 0.232,-0.312 0.232,-0.522 0,-0.011 0.003,-0.046 0.008,-0.106 0.005,-0.06 0.008,-0.119 0.008,-0.178 v -1.679 c 0,-0.362 -0.065,-0.622 -0.195,-0.779 -0.129,-0.156 -0.34,-0.235 -0.632,-0.235 -0.276,0 -0.484,0.073 -0.625,0.219 -0.14,0.146 -0.211,0.363 -0.211,0.649 v 0.146 H -3.771 V -6.18 H 0 v 0.965 c 0,0.362 0.069,0.622 0.207,0.779 0.138,0.157 0.363,0.235 0.678,0.235 0.307,0 0.528,-0.077 0.66,-0.231 0.133,-0.154 0.199,-0.415 0.199,-0.783 V -7.177 C 1.744,-7.469 1.687,-7.664 1.573,-7.761 1.46,-7.858 1.235,-7.907 0.9,-7.907 h -6.641 c -0.357,0 -0.613,0.07 -0.767,0.211 -0.154,0.14 -0.231,0.37 -0.231,0.689 0,0.286 0.073,0.504 0.219,0.653 0.146,0.148 0.359,0.223 0.641,0.223 h 0.138 v 6.05 h -0.138 c -0.276,0 -0.488,0.077 -0.637,0.231 -0.149,0.154 -0.223,0.374 -0.223,0.661 0,0.314 0.078,0.542 0.235,0.685 0.157,0.143 0.411,0.215 0.763,0.215 H 0.9 c 0.33,0 0.553,-0.05 0.669,-0.15 0.117,-0.1 0.175,-0.299 0.175,-0.596 V -0.852 C 1.744,-1.219 1.676,-1.483 1.541,-1.643 1.406,-1.802 1.187,-1.882 0.885,-1.882 0.57,-1.882 0.345,-1.8 0.207,-1.638 0.069,-1.476 0,-1.214 0,-0.852 Z"
           style="fill:#113322;fill-opacity:1;fill-rule:nonzero;stroke:none"
           id="path126" />
      </g>
      <g
         id="g128"
         transform="translate(160.4633,55.6778)"
         clip-path="url(#clipPath1224)"
         style="fill:#113322;fill-opacity:1">
        <path
           d="m 0,0 v -2.295 h 1.095 c 0.676,0 1.148,0.088 1.419,0.264 0.27,0.175 0.406,0.469 0.406,0.88 0,0.405 -0.123,0.698 -0.369,0.88 C 2.305,-0.09 1.908,0 1.362,0 Z m 3.333,-3.455 c 0.141,-0.086 0.278,-0.243 0.414,-0.47 0.022,-0.033 0.04,-0.059 0.057,-0.081 l 1.321,-2.093 h 0.09 0.162 c 0.313,0 0.55,-0.072 0.709,-0.218 0.16,-0.146 0.239,-0.365 0.239,-0.657 0,-0.319 -0.079,-0.549 -0.239,-0.69 -0.159,-0.14 -0.423,-0.211 -0.79,-0.211 H 4.298 c -0.367,0 -0.654,0.16 -0.86,0.479 L 3.414,-7.38 1.428,-4.322 c -0.076,0.118 -0.163,0.209 -0.26,0.271 -0.098,0.062 -0.2,0.093 -0.309,0.093 H 0.098 v -2.141 h 0.129 c 0.292,0 0.512,-0.074 0.661,-0.222 0.148,-0.149 0.223,-0.367 0.223,-0.653 0,-0.319 -0.077,-0.549 -0.231,-0.69 -0.154,-0.14 -0.415,-0.211 -0.782,-0.211 h -2.093 c -0.362,0 -0.622,0.071 -0.778,0.211 -0.158,0.141 -0.236,0.371 -0.236,0.69 0,0.286 0.074,0.504 0.223,0.653 0.149,0.148 0.366,0.222 0.653,0.222 h 0.138 v 6.051 h -0.138 c -0.281,0 -0.498,0.076 -0.649,0.231 -0.152,0.154 -0.227,0.374 -0.227,0.661 0,0.313 0.08,0.542 0.239,0.685 0.16,0.143 0.418,0.215 0.775,0.215 H 1.743 C 2.89,1.744 3.758,1.521 4.347,1.075 4.936,0.628 5.23,-0.03 5.23,-0.9 5.23,-1.506 5.067,-2.03 4.74,-2.473 4.413,-2.917 3.944,-3.244 3.333,-3.455"
           style="fill:#113322;fill-opacity:1;fill-rule:nonzero;stroke:none"
           id="path130" />
      </g>
      <g
         id="g132"
         transform="translate(173.2646,55.6294)"
         clip-path="url(#clipPath1218)"
         style="fill:#113322;fill-opacity:1">
        <path
           d="M 0,0 1.946,-5.75 3.957,0 H 3.738 C 3.382,0 3.126,0.069 2.972,0.207 2.817,0.344 2.741,0.573 2.741,0.892 c 0,0.319 0.076,0.548 0.231,0.689 0.154,0.141 0.415,0.211 0.783,0.211 h 2.043 c 0.368,0 0.629,-0.07 0.783,-0.211 C 6.735,1.44 6.812,1.211 6.812,0.892 6.812,0.605 6.736,0.385 6.585,0.231 6.434,0.077 6.215,0 5.928,0 H 5.798 L 3.324,-7.031 C 3.195,-7.399 3.07,-7.624 2.951,-7.705 2.833,-7.786 2.624,-7.826 2.327,-7.826 H 1.33 c -0.471,0 -0.798,0.248 -0.981,0.746 L 0.332,-7.031 -2.19,0 H -2.328 C -2.604,0 -2.813,0.076 -2.956,0.227 -3.099,0.378 -3.17,0.6 -3.17,0.892 c 0,0.324 0.074,0.555 0.222,0.693 0.149,0.138 0.401,0.207 0.758,0.207 H 0.219 C 0.57,1.792 0.824,1.72 0.98,1.577 1.138,1.434 1.216,1.206 1.216,0.892 1.216,0.578 1.138,0.351 0.98,0.21 0.824,0.07 0.57,0 0.219,0 Z"
           style="fill:#113322;fill-opacity:1;fill-rule:nonzero;stroke:none"
           id="path134" />
      </g>
      <g
         id="g136"
         transform="translate(188.1835,55.6294)"
         clip-path="url(#clipPath1212)"
         style="fill:#113322;fill-opacity:1">
        <path
           d="m 0,0 -1.176,-3.422 h 2.352 z m 4.249,-6.05 h 0.139 c 0.292,0 0.512,-0.075 0.665,-0.223 0.15,-0.149 0.226,-0.367 0.226,-0.653 0,-0.319 -0.08,-0.549 -0.239,-0.689 C 4.881,-7.756 4.617,-7.826 4.249,-7.826 h -2.44 c -0.373,0 -0.639,0.069 -0.795,0.207 -0.158,0.138 -0.236,0.369 -0.236,0.693 0,0.314 0.078,0.538 0.236,0.673 0.156,0.135 0.422,0.203 0.795,0.203 H 2.092 L 1.76,-5.101 H -1.744 L -2.093,-6.05 h 0.284 c 0.368,0 0.631,-0.069 0.791,-0.207 0.16,-0.138 0.24,-0.361 0.24,-0.669 0,-0.319 -0.08,-0.549 -0.24,-0.689 -0.16,-0.141 -0.423,-0.211 -0.791,-0.211 h -2.092 c -0.373,0 -0.638,0.07 -0.794,0.211 -0.158,0.14 -0.236,0.37 -0.236,0.689 0,0.286 0.076,0.504 0.227,0.653 0.151,0.148 0.373,0.223 0.665,0.223 h 0.138 L -1.728,0 h -0.648 c -0.368,0 -0.632,0.07 -0.791,0.21 -0.159,0.141 -0.239,0.368 -0.239,0.682 0,0.319 0.08,0.548 0.239,0.689 0.159,0.141 0.423,0.211 0.791,0.211 h 3.041 c 0.481,0 0.819,-0.259 1.014,-0.778 V 0.989 Z"
           style="fill:#113322;fill-opacity:1;fill-rule:nonzero;stroke:none"
           id="path138" />
      </g>
      <g
         id="g140"
         transform="translate(204.3759,55.6456)"
         clip-path="url(#clipPath1206)"
         style="fill:#113322;fill-opacity:1">
        <path
           d="m 0,0 h -1.695 v -6.05 h 1.362 c 0.362,0 0.622,-0.07 0.779,-0.211 0.157,-0.14 0.235,-0.367 0.235,-0.681 0,-0.319 -0.078,-0.549 -0.235,-0.689 -0.157,-0.141 -0.417,-0.211 -0.779,-0.211 h -4.816 c -0.358,0 -0.615,0.07 -0.771,0.211 -0.157,0.14 -0.235,0.37 -0.235,0.689 0,0.319 0.077,0.547 0.23,0.685 0.154,0.138 0.413,0.207 0.776,0.207 h 1.362 V 0 h -1.695 l -0.049,-1.646 v -0.203 c 0,-0.259 -0.072,-0.463 -0.215,-0.609 -0.144,-0.146 -0.342,-0.218 -0.596,-0.218 -0.303,0 -0.526,0.077 -0.669,0.231 -0.143,0.154 -0.215,0.399 -0.215,0.734 v 0.065 l 0.089,2.424 c 0.017,0.482 0.082,0.771 0.199,0.868 0.116,0.098 0.353,0.146 0.709,0.146 H 0.746 C 1.103,1.792 1.339,1.744 1.455,1.646 1.571,1.549 1.641,1.26 1.662,0.778 l 0.081,-2.424 v -0.065 c 0,-0.341 -0.067,-0.587 -0.202,-0.738 -0.136,-0.152 -0.354,-0.227 -0.657,-0.227 -0.292,0 -0.502,0.074 -0.629,0.223 -0.127,0.148 -0.195,0.417 -0.206,0.807 z"
           style="fill:#113322;fill-opacity:1;fill-rule:nonzero;stroke:none"
           id="path142" />
      </g>
      <g
         id="g144"
         transform="translate(215.9687,55.6294)"
         clip-path="url(#clipPath1200)"
         style="fill:#113322;fill-opacity:1">
        <path
           d="m 0,0 v -6.05 h 1.362 c 0.368,0 0.632,-0.069 0.791,-0.207 0.16,-0.138 0.24,-0.361 0.24,-0.669 0,-0.314 -0.081,-0.542 -0.244,-0.685 C 1.987,-7.754 1.725,-7.826 1.362,-7.826 h -4.816 c -0.368,0 -0.632,0.07 -0.791,0.211 -0.16,0.14 -0.239,0.37 -0.239,0.689 0,0.314 0.078,0.538 0.235,0.673 0.156,0.135 0.422,0.203 0.795,0.203 h 1.362 V 0 h -1.362 c -0.368,0 -0.632,0.07 -0.791,0.21 -0.16,0.141 -0.239,0.368 -0.239,0.682 0,0.319 0.078,0.546 0.235,0.681 0.156,0.135 0.422,0.203 0.795,0.203 H 1.362 C 1.746,1.776 2.014,1.708 2.166,1.573 2.316,1.438 2.393,1.211 2.393,0.892 2.393,0.578 2.314,0.351 2.157,0.21 2.001,0.07 1.735,0 1.362,0 Z"
           style="fill:#113322;fill-opacity:1;fill-rule:nonzero;stroke:none"
           id="path146" />
      </g>
      <g
         id="g148"
         transform="translate(228.2118,55.8077)"
         clip-path="url(#clipPath1194)"
         style="fill:#113322;fill-opacity:1">
        <path
           d="m 0,0 c -0.697,0 -1.245,-0.281 -1.643,-0.843 -0.397,-0.563 -0.595,-1.344 -0.595,-2.344 0,-1 0.2,-1.784 0.599,-2.352 0.401,-0.568 0.947,-0.852 1.639,-0.852 0.697,0 1.246,0.283 1.646,0.848 0.4,0.565 0.6,1.35 0.6,2.356 0,1 -0.198,1.781 -0.596,2.344 C 1.253,-0.281 0.703,0 0,0 m 0,1.881 c 1.33,0 2.425,-0.475 3.284,-1.427 0.861,-0.952 1.29,-2.165 1.29,-3.641 0,-1.487 -0.428,-2.704 -1.281,-3.649 C 2.438,-7.783 1.341,-8.256 0,-8.256 c -1.325,0 -2.42,0.477 -3.284,1.432 -0.865,0.954 -1.298,2.166 -1.298,3.637 0,1.481 0.429,2.696 1.285,3.645 0.858,0.949 1.956,1.423 3.297,1.423"
           style="fill:#113322;fill-opacity:1;fill-rule:nonzero;stroke:none"
           id="path150" />
      </g>
      <g
         id="g152"
         transform="translate(243.3817,51.1607)"
         clip-path="url(#clipPath1188)"
         style="fill:#113322;fill-opacity:1">
        <path
           d="m 0,0 v 4.469 h -0.446 c -0.358,0 -0.613,0.07 -0.767,0.21 -0.154,0.141 -0.231,0.368 -0.231,0.682 0,0.313 0.077,0.542 0.231,0.685 0.154,0.143 0.409,0.215 0.767,0.215 H 1.856 C 2.208,6.261 2.462,6.189 2.619,6.046 2.775,5.903 2.854,5.674 2.854,5.361 2.854,5.074 2.78,4.854 2.631,4.7 2.482,4.545 2.271,4.469 1.994,4.469 H 1.856 V -2.895 C 1.856,-3.149 1.83,-3.309 1.775,-3.374 1.722,-3.438 1.6,-3.471 1.411,-3.471 H 0.6 c -0.26,0 -0.442,0.027 -0.547,0.081 -0.106,0.054 -0.197,0.149 -0.273,0.284 l -3.373,5.928 v -4.404 h 0.47 c 0.352,0 0.603,-0.067 0.755,-0.202 0.151,-0.135 0.226,-0.36 0.226,-0.673 0,-0.319 -0.077,-0.549 -0.23,-0.689 -0.154,-0.141 -0.404,-0.211 -0.751,-0.211 H -5.45 c -0.352,0 -0.606,0.07 -0.763,0.211 -0.156,0.14 -0.234,0.37 -0.234,0.689 0,0.286 0.072,0.504 0.218,0.653 0.146,0.148 0.363,0.222 0.649,0.222 h 0.13 v 6.051 h -0.13 c -0.275,0 -0.489,0.076 -0.641,0.231 -0.151,0.154 -0.226,0.374 -0.226,0.661 0,0.313 0.079,0.542 0.239,0.685 0.159,0.143 0.412,0.215 0.758,0.215 h 1.33 c 0.319,0 0.535,-0.042 0.648,-0.126 0.115,-0.084 0.242,-0.253 0.382,-0.507 z"
           style="fill:#113322;fill-opacity:1;fill-rule:nonzero;stroke:none"
           id="path154" />
      </g>
      <g
         id="g156"
         transform="translate(256.2401,57.4214)"
         clip-path="url(#clipPath1182)"
         style="fill:#113322;fill-opacity:1">
        <path
           d="m 0,0 h 1.59 c 0.065,0 0.12,-0.015 0.166,-0.044 0.046,-0.03 0.069,-0.067 0.069,-0.11 0,-0.038 -0.004,-0.073 -0.013,-0.105 -0.007,-0.033 -0.019,-0.063 -0.036,-0.09 l -1.995,-3.868 c -0.043,-0.081 -0.091,-0.141 -0.141,-0.179 -0.052,-0.037 -0.11,-0.056 -0.175,-0.056 -0.037,0 -0.065,0.001 -0.081,0.004 -0.016,0.003 -0.032,0.007 -0.049,0.012 l -0.519,0.186 c -0.07,0.022 -0.127,0.056 -0.17,0.102 -0.043,0.046 -0.065,0.099 -0.065,0.158 0,0.054 0.001,0.091 0.004,0.11 0.003,0.018 0.01,0.039 0.02,0.06 l 0.941,3.439 c 0.049,0.168 0.102,0.273 0.162,0.316 C -0.232,-0.021 -0.135,0 0,0 m -3.179,0 h 1.581 c 0.066,0 0.121,-0.015 0.167,-0.044 0.046,-0.03 0.069,-0.067 0.069,-0.11 0,-0.038 -0.004,-0.073 -0.012,-0.105 -0.008,-0.033 -0.023,-0.063 -0.045,-0.09 L -3.39,-4.217 c -0.043,-0.076 -0.092,-0.134 -0.149,-0.175 -0.058,-0.04 -0.118,-0.06 -0.183,-0.06 -0.038,0 -0.065,0.001 -0.081,0.004 -0.016,0.003 -0.035,0.007 -0.056,0.012 l -0.512,0.186 c -0.075,0.022 -0.134,0.056 -0.174,0.102 -0.041,0.046 -0.06,0.099 -0.06,0.158 0,0.054 0.001,0.091 0.003,0.11 0.002,0.018 0.007,0.039 0.012,0.06 l 0.949,3.439 c 0.049,0.162 0.104,0.266 0.166,0.312 C -3.412,-0.023 -3.313,0 -3.179,0"
           style="fill:#113322;fill-opacity:1;fill-rule:nonzero;stroke:none"
           id="path158" />
      </g>
    </g>
  </g>
</svg>
